HIERARCHY
ROOT Hips
{
	OFFSET 0.000000 0.000000 0.000000
	CHANNELS 6 Xposition Yposition Zposition Xrotation Yrotation Zrotation
	JOINT LeftUpLeg_virtual
	{
		OFFSET 0.000000 0.000000 0.000000
		CHANNELS 3 Xrotation Yrotation Zrotation
		JOINT LeftUpLeg
		{
			OFFSET 11.394100 -6.187798 -0.413800
			CHANNELS 3 Xrotation Yrotation Zrotation
			JOINT LeftLeg
			{
				OFFSET 0.430247 -32.302673 3.732800
				CHANNELS 3 Xrotation Yrotation Zrotation
				JOINT LeftFoot
				{
					OFFSET -0.430247 -48.264931 -6.423300
					CHANNELS 3 Xrotation Yrotation Zrotation
					JOINT LeftToeBase
					{
						OFFSET 4.230900 -16.068199 23.438400
						CHANNELS 3 Xrotation Yrotation Zrotation
						JOINT LeftToe_End
						{
							OFFSET 4.510700 0.695400 19.974600
							CHANNELS 3 Xrotation Yrotation Zrotation
							End Site
							{
								OFFSET 0 0 0
							}
						}
					}
				}
			}
		}
	}
	JOINT RightUpLeg_virtual
	{
		OFFSET 0.000000 0.000000 0.000000
		CHANNELS 3 Xrotation Yrotation Zrotation
		JOINT RightUpLeg
		{
			OFFSET -11.333700 -6.187798 -0.413800
			CHANNELS 3 Xrotation Yrotation Zrotation
			JOINT RightLeg
			{
				OFFSET -0.430392 -32.302628 3.733000
				CHANNELS 3 Xrotation Yrotation Zrotation
				JOINT RightFoot
				{
					OFFSET 0.430392 -48.264973 -6.423500
					CHANNELS 3 Xrotation Yrotation Zrotation
					JOINT RightToeBase
					{
						OFFSET -4.230900 -16.068199 23.438400
						CHANNELS 3 Xrotation Yrotation Zrotation
						JOINT RightToe_End
						{
							OFFSET -4.510700 0.695400 19.974600
							CHANNELS 3 Xrotation Yrotation Zrotation
							End Site
							{
								OFFSET 0 0 0
							}
						}
					}
				}
			}
		}
	}
	JOINT Spine_virtual
	{
		OFFSET 0.000000 0.000000 0.000000
		CHANNELS 3 Xrotation Yrotation Zrotation
		JOINT Spine
		{
			OFFSET -0.002400 12.777504 0.315300
			CHANNELS 3 Xrotation Yrotation Zrotation
			JOINT Spine1
			{
				OFFSET -0.002067 5.816869 0.032633
				CHANNELS 3 Xrotation Yrotation Zrotation
				JOINT Spine1_split
				{
					OFFSET -0.002067 5.816869 0.032633
					CHANNELS 3 Xrotation Yrotation Zrotation
					JOINT Spine2
					{
						OFFSET -0.002067 5.816869 0.032633
						CHANNELS 3 Xrotation Yrotation Zrotation
						JOINT Neck_virtual
						{
							OFFSET 0.000000 0.000000 0.000000
							CHANNELS 3 Xrotation Yrotation Zrotation
							JOINT Neck
							{
								OFFSET -0.003700 21.199493 -0.826900
								CHANNELS 3 Xrotation Yrotation Zrotation
								JOINT Head
								{
									OFFSET 0.000000 20.442200 4.834800
									CHANNELS 3 Xrotation Yrotation Zrotation
									JOINT HeadTop_End
									{
										OFFSET 0.000000 34.668396 4.968400
										CHANNELS 3 Xrotation Yrotation Zrotation
										End Site
										{
											OFFSET 0 0 0
										}
									}
								}
							}
						}
						JOINT LeftShoulder_virtual
						{
							OFFSET 0.000000 0.000000 0.000000
							CHANNELS 3 Xrotation Yrotation Zrotation
							JOINT LeftShoulder
							{
								OFFSET 3.288150 8.794197 -1.372250
								CHANNELS 3 Xrotation Yrotation Zrotation
								JOINT LeftShoulder_split
								{
									OFFSET 3.288150 8.794197 -1.372250
									CHANNELS 3 Xrotation Yrotation Zrotation
									JOINT LeftArm
									{
										OFFSET 11.953299 -2.279007 -0.146200
										CHANNELS 3 Xrotation Yrotation Zrotation
										JOINT LeftForeArm
										{
											OFFSET 18.448900 0.000000 0.000000
											CHANNELS 3 Xrotation Yrotation Zrotation
											JOINT LeftHand
											{
												OFFSET 29.527798 0.000000 0.000000
												CHANNELS 3 Xrotation Yrotation Zrotation
												End Site
												{
													OFFSET 0 0 0
												}
											}
										}
									}
								}
							}
						}
						JOINT RightShoulder_virtual
						{
							OFFSET 0.000000 0.000000 0.000000
							CHANNELS 3 Xrotation Yrotation Zrotation
							JOINT RightShoulder
							{
								OFFSET -3.249400 8.794197 -1.372250
								CHANNELS 3 Xrotation Yrotation Zrotation
								JOINT RightShoulder_split
								{
									OFFSET -3.249400 8.794197 -1.372250
									CHANNELS 3 Xrotation Yrotation Zrotation
									JOINT RightArm
									{
										OFFSET -11.953299 -2.279007 -0.146200
										CHANNELS 3 Xrotation Yrotation Zrotation
										JOINT RightForeArm
										{
											OFFSET -18.448900 0.000000 0.000000
											CHANNELS 3 Xrotation Yrotation Zrotation
											JOINT RightHand
											{
												OFFSET -29.527802 0.000000 0.000000
												CHANNELS 3 Xrotation Yrotation Zrotation
												End Site
												{
													OFFSET 0 0 0
												}
											}
										}
									}
								}
							}
						}
					}
				}
			}
		}
	}
}
MOTION
Frames: 11
Frame Time: 0.03333333
10.473879 74.533203 54.806927 0.000000 0.000000 0.000000 -15.075674 -41.373010 -10.184610 -55.399480 -5.486064 27.011761 65.595880 -4.327585 7.076386 -0.764630 -11.359755 -22.877147 1.279715 -0.000002 -0.000017 0.000000 0.000000 0.000000 -15.075674 -41.373010 -10.184610 -39.849892 8.341286 -38.270667 87.192119 1.870815 -10.641274 -0.450882 -3.944146 17.781457 -13.736923 -0.789037 10.488046 0.000000 0.000000 0.000000 -15.075674 -41.373010 -10.184610 25.888770 4.337180 -11.388153 -0.007323 0.740836 0.739481 0.000000 0.000000 0.000000 0.000000 0.000000 0.000000 -0.021543 0.795778 0.715260 3.577652 13.114702 1.876299 0.173866 21.052660 -5.722964 0.000000 0.000000 0.000000 -0.021543 0.795778 0.715260 0.779442 2.140488 -7.063362 0.000000 0.000000 0.000000 -57.357722 1.685999 -44.415556 179.999991 -67.639404 179.999991 0.000000 0.000000 0.000000 -0.021543 0.795778 0.715260 2.584175 13.110031 -5.955824 0.000000 0.000000 0.000000 -44.416679 22.208246 83.659982 -179.999991 65.087284 -179.999991 0.000000 0.000000 0.000000 
9.007076 75.816551 51.810032 0.000000 0.000000 0.000000 -14.610963 -42.126691 -8.625594 -51.403672 -3.433720 28.046529 58.047339 -5.081648 7.006975 2.047729 -11.155563 -24.849456 1.218208 -0.000014 0.000001 0.000000 0.000000 0.000000 -14.610963 -42.126691 -8.625594 -36.377758 4.903253 -37.342898 83.627518 4.277428 -10.557913 -8.569032 -9.222379 20.145404 -13.522134 -0.065433 3.063933 0.000000 0.000000 0.000000 -14.610963 -42.126691 -8.625594 22.984973 5.869168 -9.864059 0.646531 0.929557 0.134780 0.000000 0.000000 0.000000 0.000000 0.000000 0.000000 0.636331 0.960695 0.115372 4.340619 13.104375 0.961784 1.464761 20.711691 -6.151119 0.000000 0.000000 0.000000 0.636331 0.960695 0.115372 0.727746 3.027000 -7.324551 0.000000 0.000000 0.000000 -54.688601 2.382184 -44.353432 179.999923 -66.001423 179.999923 0.000000 0.000000 0.000000 0.636331 0.960695 0.115372 2.812978 13.874462 -5.932522 0.000000 0.000000 0.000000 -45.155825 21.957414 84.432975 -179.999991 65.497430 180.000005 0.000000 0.000000 0.000000 
7.470963 76.908508 48.446877 0.000000 0.000000 0.000000 -12.750655 -41.724748 -6.425976 -48.727283 -1.746102 28.465741 49.682164 -6.038906 6.885894 5.623790 -11.777847 -26.541862 1.096861 -0.000005 -0.000017 0.000000 0.000000 0.000000 -12.750655 -41.724748 -6.425976 -32.902462 0.821520 -36.336692 78.713450 5.634500 -9.351745 -16.817352 -13.581566 20.997255 -12.268518 -0.000021 -0.000004 0.000000 0.000000 0.000000 -12.750655 -41.724748 -6.425976 19.373104 7.103841 -7.698625 1.352512 1.057874 -0.608380 0.000000 0.000000 0.000000 0.000000 0.000000 0.000000 1.352140 1.065434 -0.615883 5.139177 13.011474 -0.052974 2.198363 19.765680 -6.130645 0.000000 0.000000 0.000000 1.352140 1.065434 -0.615883 0.720598 3.654622 -7.622854 0.000000 0.000000 0.000000 -53.440811 2.217202 -44.400276 -179.999978 -65.283146 -179.999964 0.000000 0.000000 0.000000 1.352140 1.065434 -0.615883 2.810629 14.537260 -6.138981 0.000000 0.000000 0.000000 -46.080192 20.947451 84.878829 179.999991 65.647742 -179.999991 0.000000 0.000000 0.000000 
6.199301 78.091301 44.803997 0.000000 0.000000 0.000000 -10.202587 -40.544577 -3.880628 -47.811208 -0.979869 27.865464 44.044779 -6.388832 6.122991 6.214521 -11.967361 -27.374314 1.921902 0.000009 -0.000006 0.000000 0.000000 0.000000 -10.202587 -40.544577 -3.880628 -31.100863 -2.418592 -36.061322 73.645606 4.820828 -6.114689 -23.843169 -14.422421 18.424661 -6.023775 -0.000031 -0.000003 0.000000 0.000000 0.000000 -10.202587 -40.544577 -3.880628 16.146379 7.622208 -5.791545 1.874576 1.097744 -1.317245 0.000000 0.000000 0.000000 0.000000 0.000000 0.000000 1.886065 1.087222 -1.312156 5.491043 12.883353 -0.792210 2.478763 18.552095 -5.750203 0.000000 0.000000 0.000000 1.886065 1.087222 -1.312156 0.717235 3.924097 -7.764513 0.000000 0.000000 0.000000 -54.024457 1.701625 -44.671169 179.999991 -65.480484 -179.999991 0.000000 0.000000 0.000000 1.886065 1.087222 -1.312156 2.470816 14.861039 -6.589032 0.000000 0.000000 0.000000 -47.485828 20.109974 84.599816 180.000005 65.662625 179.999991 0.000000 0.000000 0.000000 
5.291263 79.803268 40.777546 0.000000 0.000000 0.000000 -7.931174 -39.200573 -1.512399 -48.538186 -0.341201 25.966586 43.398735 -6.407887 4.852869 3.605895 -11.110322 -25.814502 1.000656 -0.000000 0.000008 0.000000 0.000000 0.000000 -7.931174 -39.200573 -1.512399 -31.423959 -4.170120 -35.591207 70.196245 3.836257 -3.280536 -25.398262 -14.336448 17.708968 -0.361286 -0.000012 -0.000002 0.000000 0.000000 0.000000 -7.931174 -39.200573 -1.512399 15.121532 7.377409 -5.397007 1.890067 1.066439 -1.668092 0.000000 0.000000 0.000000 0.000000 0.000000 0.000000 1.907839 1.047428 -1.659999 5.208637 12.741141 -1.088780 2.364867 17.474665 -5.540661 0.000000 0.000000 0.000000 1.907839 1.047428 -1.659999 0.742650 3.717748 -7.713984 0.000000 0.000000 0.000000 -56.055414 1.579866 -45.004506 -179.999923 -66.385218 -179.999923 0.000000 0.000000 0.000000 1.907839 1.047428 -1.659999 1.776032 14.703106 -7.302539 0.000000 0.000000 0.000000 -48.721536 20.233723 83.907303 -179.999937 65.349952 179.999937 0.000000 0.000000 0.000000 
4.912287 81.936050 37.048874 0.000000 0.000000 0.000000 -6.569908 -38.146402 -0.669187 -49.857314 0.434789 23.518997 48.160405 -5.580689 4.099197 -2.455700 -10.515135 -22.877164 1.102909 -0.000010 -0.000003 0.000000 0.000000 0.000000 -6.569908 -38.146402 -0.669187 -32.716992 -5.354315 -34.145413 68.188606 2.076125 -1.162552 -24.067083 -12.826110 15.960359 0.009422 -0.000025 0.018380 0.000000 0.000000 0.000000 -6.569908 -38.146402 -0.669187 16.376977 6.814264 -5.551501 1.373371 1.001745 -1.412962 0.000000 0.000000 0.000000 0.000000 0.000000 0.000000 1.387015 0.982567 -1.413533 4.544869 12.610614 -1.070823 1.848850 16.915011 -6.020235 0.000000 0.000000 0.000000 1.387015 0.982567 -1.413533 0.827999 3.119070 -7.611781 0.000000 0.000000 0.000000 -58.617783 1.942434 -45.501535 179.999950 -67.950663 179.999950 0.000000 0.000000 0.000000 1.387015 0.982567 -1.413533 1.113464 14.164120 -7.979228 0.000000 0.000000 0.000000 -49.589885 21.179773 83.157464 -179.999964 64.711849 179.999964 0.000000 0.000000 0.000000 
4.869012 84.393333 33.689224 0.000000 0.000000 0.000000 -5.442639 -37.963472 -1.007047 -50.280936 0.641548 21.986596 53.331442 -5.721746 3.623334 -3.105317 -10.901165 -25.171709 1.412274 -0.000024 -0.000002 0.000000 0.000000 0.000000 -5.442639 -37.963472 -1.007047 -33.544101 -6.944465 -31.378302 65.283378 -0.171681 0.622040 -22.250243 -10.610502 12.740418 -0.417971 -0.000018 0.000010 0.000000 0.000000 0.000000 -5.442639 -37.963472 -1.007047 17.957956 6.248591 -5.621728 0.945063 0.916704 -0.876163 0.000000 0.000000 0.000000 0.000000 0.000000 0.000000 0.951747 0.908270 -0.883412 3.839360 12.597335 -1.023828 1.041538 17.112067 -6.902102 0.000000 0.000000 0.000000 0.951747 0.908270 -0.883412 0.926606 2.473424 -7.528972 0.000000 0.000000 0.000000 -61.452120 2.547720 -45.946539 -179.999964 -69.184502 -179.999991 0.000000 0.000000 0.000000 0.951747 0.908270 -0.883412 0.862083 13.730915 -8.245999 0.000000 0.000000 0.000000 -50.564847 22.193607 82.578975 179.999991 63.851013 179.999991 0.000000 0.000000 0.000000 
4.999541 86.886299 30.539371 0.000000 0.000000 0.000000 -3.666556 -39.419532 -1.712926 -50.407080 0.737055 20.551566 59.614813 -5.014834 3.514437 -4.488866 -11.590456 -24.666390 -2.754982 -0.214749 3.905795 0.000000 0.000000 0.000000 -3.666556 -39.419532 -1.712926 -35.021710 -8.448397 -27.463433 61.631269 -1.087929 1.607202 -18.738223 -8.666363 10.536649 -0.866213 -0.000330 0.226004 0.000000 0.000000 0.000000 -3.666556 -39.419532 -1.712926 18.570735 6.124884 -5.849890 0.720055 0.872451 -0.238265 0.000000 0.000000 0.000000 0.000000 0.000000 0.000000 0.719161 0.884209 -0.248230 3.270746 12.777787 -1.215458 0.173272 17.958985 -7.450263 0.000000 0.000000 0.000000 0.719161 0.884209 -0.248230 0.948325 2.118889 -7.411313 0.000000 0.000000 0.000000 -64.084960 3.154219 -45.852928 -179.999896 -69.460927 -179.999882 0.000000 0.000000 0.000000 0.719161 0.884209 -0.248230 0.925582 13.841737 -8.192388 0.000000 0.000000 0.000000 -51.354806 22.664869 82.279170 -179.999991 63.168226 179.999991 0.000000 0.000000 0.000000 
5.203951 88.854523 27.523409 0.000000 0.000000 0.000000 -1.110532 -42.424651 -1.909496 -49.715629 1.779853 19.176110 65.309217 -3.492105 3.199677 -8.886081 -12.397656 -19.996034 -6.188878 -0.348952 4.970211 0.000000 0.000000 0.000000 -1.110532 -42.424651 -1.909496 -37.018000 -9.226397 -23.856434 57.311352 0.344922 2.172108 -12.689003 -7.996977 12.862656 -3.763760 0.000073 -0.001407 0.000000 0.000000 0.000000 -1.110532 -42.424651 -1.909496 17.628600 6.464785 -6.358585 0.757170 0.896103 0.269477 0.000000 0.000000 0.000000 0.000000 0.000000 0.000000 0.749158 0.927225 0.260704 2.997427 13.072579 -1.666921 -0.500459 19.068678 -7.469096 0.000000 0.000000 0.000000 0.749158 0.927225 0.260704 0.878709 2.075249 -7.229785 0.000000 0.000000 0.000000 -66.734541 3.344147 -45.120049 -179.999978 -69.273732 -179.999978 0.000000 0.000000 0.000000 0.749158 0.927225 0.260704 1.016843 14.431449 -8.160439 0.000000 0.000000 0.000000 -52.247976 22.400522 82.443054 -179.999909 63.250748 179.999896 0.000000 0.000000 0.000000 
5.322511 90.028786 24.729107 0.000000 0.000000 0.000000 1.452176 -45.869327 -1.340334 -47.096453 4.066808 18.001039 67.242680 -2.380765 2.436617 -12.927844 -12.481284 -14.244430 -8.237627 -0.398301 5.315581 0.000000 0.000000 0.000000 1.452176 -45.869327 -1.340334 -38.739255 -10.226474 -21.056841 54.356691 -0.108070 2.729300 -11.212761 -7.110845 11.762174 -2.552756 0.024561 -1.131359 0.000000 0.000000 0.000000 1.452176 -45.869327 -1.340334 15.581658 6.861914 -6.811355 1.051275 0.951773 0.447593 0.000000 0.000000 0.000000 0.000000 0.000000 0.000000 1.039845 0.990867 0.444803 3.174899 13.304061 -2.073394 -0.668792 20.101771 -7.435592 0.000000 0.000000 0.000000 1.039845 0.990867 0.444803 0.768799 2.161161 -7.010396 0.000000 0.000000 0.000000 -69.217212 2.933061 -44.078680 -179.999978 -69.486861 -179.999978 0.000000 0.000000 0.000000 1.039845 0.990867 0.444803 1.081578 15.156139 -8.176181 0.000000 0.000000 0.000000 -53.498266 21.847798 82.848118 -179.999950 64.221762 179.999964 0.000000 0.000000 0.000000 
5.395787 90.579079 22.387554 0.000000 0.000000 0.000000 2.945382 -48.728168 -0.991800 -42.299211 7.120554 16.653599 64.648301 -1.473209 1.795515 -16.928185 -10.687404 -7.490797 -8.563496 -0.053947 1.960567 0.000000 0.000000 0.000000 2.945382 -48.728168 -0.991800 -39.084600 -9.868927 -21.603827 52.818659 -2.415457 4.121931 -9.139221 -7.027258 14.294751 -2.516068 0.012598 -0.949907 0.000000 0.000000 0.000000 2.945382 -48.728168 -0.991800 13.462346 7.081655 -6.395196 1.362742 0.989356 0.279172 0.000000 0.000000 0.000000 0.000000 0.000000 0.000000 1.354658 1.021660 0.284074 3.648069 13.355701 -2.025079 -0.017911 20.946237 -7.767005 0.000000 0.000000 0.000000 1.354658 1.021660 0.284074 0.635061 2.305882 -6.753167 0.000000 0.000000 0.000000 -70.817109 2.114020 -43.413007 -179.999855 -70.476446 -179.999841 0.000000 0.000000 0.000000 1.354658 1.021660 0.284074 1.463278 15.656713 -7.841546 0.000000 0.000000 0.000000 -55.218955 21.584023 82.890725 -179.999964 65.826556 179.999978 0.000000 0.000000 0.000000 
